<?xml version="1.0" encoding="utf-8"?>
<svg width="38" height="27" viewBox="0 0 38 27" fill="none" xmlns="http://www.w3.org/2000/svg">
<path d="M37.7817 8.35449C37.5958 8.12689 37.3185 7.99404 37.0276 7.99404H33.3293C32.4167 5.57739 31.2277 3.20958 29.8763 2.31579C25.2011 -0.771931 12.8006 -0.771931 8.12546 2.31579C6.77303 3.21056 5.58892 5.5813 4.67141 7.99404H0.973139C0.679302 7.99404 0.402978 8.12689 0.219086 8.35449C0.034221 8.58111 -0.0397248 8.88099 0.0205994 9.16915L0.568383 11.8339C0.661788 12.2881 1.06071 12.6124 1.52092 12.6124H2.61649C1.55887 13.8374 1.04611 15.3798 1.0393 16.9231C1.03249 18.8299 1.75346 20.553 3.07184 21.7721C3.08644 21.7848 3.10103 21.7936 3.11465 21.8063V25.5348C3.11465 26.3426 3.76849 27 4.57411 27H7.98535C8.79097 27 9.44481 26.3426 9.44481 25.5348V24.0363H28.555V25.5348C28.555 26.3426 29.2088 27 30.0144 27H33.4257C34.2293 27 34.8851 26.3426 34.8851 25.5348V21.8795C36.2842 20.593 36.9527 18.823 36.9614 17.056C36.9673 15.4599 36.4312 13.8608 35.3113 12.6105H36.4798C36.942 12.6105 37.3409 12.2862 37.4324 11.831L37.9811 9.1672C38.0375 8.88099 37.9665 8.58306 37.7817 8.35449ZM9.72794 4.76272C13.4544 2.30016 24.5453 2.30016 28.2699 4.76272C28.9938 5.23941 29.9249 7.16668 30.7782 9.52667H7.22157C8.07292 7.16765 9.00405 5.24136 9.72794 4.76272ZM5.36319 17.2904C5.36319 15.6982 6.64946 14.4088 8.23443 14.4088C9.82135 14.4088 11.1057 15.6982 11.1057 17.2904C11.1057 18.8826 9.82135 20.173 8.23443 20.173C6.64946 20.173 5.36319 18.8826 5.36319 17.2904ZM29.8033 20.173C28.2183 20.173 26.932 18.8826 26.932 17.2904C26.932 15.6982 28.2183 14.4088 29.8033 14.4088C31.3902 14.4088 32.6745 15.6982 32.6745 17.2904C32.6745 18.8826 31.3883 20.173 29.8033 20.173Z" fill="#743794"/>
</svg>
