<?xml version="1.0" encoding="utf-8"?>
<svg width="35" height="35" viewBox="0 0 35 35" fill="none" xmlns="http://www.w3.org/2000/svg">
<path d="M34.902 14.0421C34.6807 12.1279 29.4338 14.0421 29.4338 14.0421L29.1246 16.7658C29.0101 16.7015 28.8938 16.6389 28.7716 16.5856L27.4463 10.9057C26.9606 8.20146 24.8827 6.20946 21.854 6.31181H14.0719C14.0245 6.62901 13.9488 6.93605 13.8549 7.23633H22.3793C24.1472 7.23633 25.767 8.35371 26.2097 10.1985L27.6331 15.8066C27.5436 15.8041 27.4549 15.7956 27.3645 15.7956H10.8598L10.8641 21.2624H21.0885V22.4847H10.865L10.8659 22.8416H20.9851V24.0664H10.8659L10.8693 28.6594H21.786V31.5683C21.786 32.75 23.2749 33.7101 25.11 33.7101C26.9451 33.7101 28.4314 32.7509 28.4314 31.5683V28.3228C29.9995 27.7408 31.0915 26.4678 31.0915 24.9867V19.7821C31.0915 18.6318 30.4301 17.6074 29.4062 16.935L34.902 16.6431C34.902 16.6431 35.1225 15.9546 34.902 14.0421ZM28.6062 23.9751H22.6075V21.1736H28.6062V23.9751Z" fill="#743794"/>
<path d="M10.8659 22.8416L10.7134 22.8408V24.0656L10.8659 24.0664V22.8416Z" fill="#743794"/>
<path d="M10.865 21.2624H10.8176V22.4847H10.865V21.2624Z" fill="#743794"/>
<path d="M12.8913 5.48794C12.8861 3.13814 11.5858 1.09116 9.64908 0V5.06924L6.44478 6.88615L3.23789 5.06332V0C1.30463 1.09116 0.00172228 3.13814 0 5.48794C0 7.95193 1.4381 10.0869 3.53412 11.1349V32.0116C3.53412 32.8371 3.87255 33.584 4.42368 34.1262C4.97395 34.6676 5.73347 34.9966 6.57567 35C8.24973 35 9.61033 33.6652 9.61636 32.0124L9.60344 11.0021C11.566 9.91771 12.8887 7.85212 12.8913 5.48794ZM7.24564 33.3345C6.79268 33.7811 6.05554 33.7811 5.59914 33.3337C5.14962 32.8904 5.15048 32.1698 5.60344 31.7231C6.05898 31.2782 6.79354 31.2782 7.24305 31.7198C7.6986 32.1672 7.69946 32.8887 7.24564 33.3345Z" fill="#743794"/>
</svg>
