<?xml version="1.0" encoding="utf-8"?>
<svg width="36" height="36" viewBox="0 0 36 36" fill="none" xmlns="http://www.w3.org/2000/svg">
<path fill-rule="evenodd" clip-rule="evenodd" d="M35.8874 16.0013C35.8304 15.4953 35.2404 15.115 34.7302 15.115C33.0806 15.115 31.6168 14.1464 31.0029 12.6485C30.3757 11.1143 30.7801 9.32503 32.0095 8.19734C32.3965 7.84359 32.4435 7.25141 32.119 6.84007C31.2747 5.76796 30.3151 4.79953 29.2673 3.96022C28.857 3.63098 28.2551 3.67679 27.8993 4.07073C26.8263 5.25897 24.8991 5.70059 23.4098 5.07921C21.86 4.42729 20.8827 2.85691 20.9784 1.1712C21.0099 0.641709 20.6229 0.181337 20.095 0.119855C18.7504 -0.035656 17.394 -0.040478 16.0454 0.10914C15.5236 0.166737 15.1366 0.61626 15.1541 1.13905C15.2128 2.80815 14.2237 4.35108 12.6893 4.97955C11.2179 5.58057 9.30415 5.1427 8.23336 3.96505C7.87947 3.57714 7.28728 3.52945 6.87498 3.85079C5.79615 4.6972 4.81497 5.66643 3.96292 6.72969C3.63059 7.14305 3.67948 7.74219 4.07035 8.09782C5.32318 9.23234 5.7277 11.0371 5.07684 12.589C4.45545 14.0686 2.91905 15.0222 1.16016 15.0222C0.589405 15.0038 0.182869 15.3869 0.120449 15.9058C-0.0378796 17.2581 -0.0397549 18.636 0.11268 19.9993C0.169206 20.5075 0.777203 20.8844 1.29304 20.8844C2.86052 20.8444 4.36544 21.8148 4.99674 23.3511C5.62604 24.8853 5.22151 26.6735 3.99025 27.8021C3.60514 28.1558 3.55625 28.7471 3.88081 29.1584C4.71719 30.2237 5.67694 31.1931 6.72844 32.0393C7.14087 32.3717 7.74096 32.3248 8.09848 31.9308C9.17543 30.7397 11.1026 30.2988 12.5859 30.9214C14.1396 31.5713 15.1169 33.1416 15.0212 34.8282C14.99 35.358 15.3789 35.8192 15.9046 35.8797C16.5925 35.9599 17.2845 36 17.9783 36C18.6369 36 19.2957 35.9638 19.9543 35.8906C20.4763 35.833 20.8631 35.3834 20.8455 34.8597C20.7851 33.1916 21.7759 31.6486 23.3083 31.0212C24.7896 30.4162 26.6953 30.859 27.7663 32.0355C28.1222 32.4226 28.7102 32.4693 29.1248 32.149C30.2016 31.3046 31.1808 30.3362 32.0368 29.27C32.369 28.8576 32.3222 28.2575 31.9293 27.902C30.6765 26.7675 30.2699 24.9624 30.9208 23.4116C31.5327 21.9517 33.012 20.9715 34.6032 20.9715L34.8258 20.9773C35.3419 21.0192 35.8168 20.6216 35.8793 20.0948C36.0379 18.7413 36.0398 17.3646 35.8874 16.0013ZM18.0285 24.0421C14.7176 24.0421 12.0244 21.349 12.0244 18.0381C12.0244 14.7273 14.7176 12.0341 18.0285 12.0341C21.3394 12.0341 24.0326 14.7273 24.0326 18.0381C24.0326 21.349 21.3394 24.0421 18.0285 24.0421Z" fill="#743794"/>
</svg>
