<?xml version="1.0" encoding="utf-8"?>
<svg width="35" height="35" viewBox="0 0 35 35" fill="none" xmlns="http://www.w3.org/2000/svg">
<path d="M32.9612 8.08315C20.4212 8.08315 24.5068 0 15.5142 0C9.82349 0 8.78759 2.89666 7.88118 5.61802C7.08133 8.01707 0.625855 24.9628 0.625855 24.9628C0.625855 24.9628 0.644738 24.9358 0.673063 24.8981C0.225254 25.8353 0 26.7955 0 27.6586C0 31.3063 2.54793 35 7.41854 35C12.888 35 14.8371 32.2139 14.8371 29.6058C14.8371 26.519 11.6188 24.2117 8.74173 24.2117C5.49781 24.2117 4.04647 25.9054 4.04647 27.583C4.04647 29.5047 5.78646 30.9544 8.09295 30.9544C8.8375 30.9544 9.44177 30.3516 9.44177 29.6058C9.44177 28.8601 8.8375 28.2573 8.09295 28.2573C7.37402 28.2573 6.74412 27.9431 6.74412 27.583C6.74412 27.3079 7.45495 26.9088 8.74173 26.9088C10.2389 26.9088 12.1394 28.1777 12.1394 29.6058C12.1394 31.9523 9.18145 32.3029 7.41854 32.3029C4.15708 32.3029 2.69765 29.9713 2.69765 27.6586C2.69765 26.4138 3.87248 22.8631 9.09108 22.8631C13.2819 22.8631 14.7507 25.0437 16.6094 27.8042C18.7675 31.0097 21.4531 35 29.1454 35C29.8373 35 30.385 34.4741 30.4632 33.8038C30.4686 33.8038 30.474 33.8038 30.4794 33.8038C30.4794 33.8038 34.6554 11.499 34.8995 10.431C35.5334 7.67049 32.9612 8.08315 32.9612 8.08315Z" fill="#743794"/>
</svg>
