<?xml version="1.0" encoding="utf-8"?>
<svg width="37" height="32" viewBox="0 0 37 32" fill="none" xmlns="http://www.w3.org/2000/svg">
<path d="M21.2171 14.1652C20.2191 14.1652 19.4072 14.9883 19.4072 16C19.4072 17.0118 20.2191 17.8348 21.2171 17.8348C22.2151 17.8348 23.027 17.0118 23.027 16C23.027 14.9883 22.2151 14.1652 21.2171 14.1652Z" fill="#743794"/>
<path d="M22.4161 8.6035V11.9122C23.3456 12.1928 24.1412 12.7905 24.6804 13.5816L27.7846 12.5591C26.7289 10.4966 24.7554 8.9917 22.4161 8.6035Z" fill="#743794"/>
<path d="M28.527 14.8699L25.4218 15.8928C25.4227 15.9285 25.4246 15.964 25.4246 15.9999C25.4246 16.9741 25.1001 17.8723 24.556 18.5912L26.4732 21.2663C27.7941 19.9115 28.611 18.0507 28.611 15.9999C28.611 15.6159 28.5822 15.2385 28.527 14.8699Z" fill="#743794"/>
<path d="M21.2172 0H6.6332C5.97118 0 5.43446 0.544106 5.43446 1.21525C5.43446 1.88639 5.97118 2.43049 6.6332 2.43049H12.8644C11.5497 3.26515 10.3644 4.29021 9.34649 5.46788H1.19874C0.536718 5.46795 0 6.01213 0 6.68327C0 7.35441 0.536718 7.89852 1.19874 7.89852H7.61233C6.22931 10.2763 5.43439 13.0457 5.43439 16C5.43439 19.4377 6.50963 22.6256 8.33665 25.2365H4.93539C4.27336 25.2365 3.73665 25.7806 3.73665 26.4518C3.73665 27.1229 4.27336 27.667 4.93539 27.667H10.429C11.1764 28.3778 11.9919 29.0156 12.8644 29.5695H1.32239C0.660365 29.5695 0.123647 30.1136 0.123647 30.7848C0.123647 31.4559 0.660365 32 1.32239 32H21.2172C29.92 32 37 24.8224 37 16C37 7.17756 29.9199 0 21.2172 0ZM27.0403 23.9752C27.0182 23.9941 26.9963 24.0131 26.9725 24.0305C26.9458 24.0502 26.9184 24.0686 26.8907 24.0857C25.289 25.2441 23.3303 25.9263 21.2172 25.9263C19.1042 25.9263 17.1455 25.2441 15.5437 24.0857C15.516 24.0686 15.4886 24.0502 15.4619 24.0305C15.4382 24.013 15.4163 23.9939 15.3942 23.9752C12.9881 22.1649 11.4257 19.2641 11.4257 16C11.4257 10.5267 15.8182 6.07374 21.2172 6.07374C26.6163 6.07374 31.0087 10.5267 31.0087 16C31.0087 19.2642 29.4464 22.1649 27.0403 23.9752Z" fill="#743794"/>
<path d="M14.6497 12.559L17.7539 13.5815C18.2932 12.7905 19.0888 12.1927 20.0183 11.9121V8.6034C17.679 8.99168 15.7055 10.4965 14.6497 12.559Z" fill="#743794"/>
<path d="M22.6176 20.0217C22.1793 20.1791 21.7082 20.2656 21.2172 20.2656C20.7264 20.2656 20.2551 20.1791 19.8167 20.0217L17.8991 22.6974C18.8975 23.2078 20.0247 23.4958 21.2172 23.4958C22.4096 23.4958 23.5368 23.2078 24.5353 22.6974L22.6176 20.0217Z" fill="#743794"/>
<path d="M17.0096 15.9999C17.0096 15.964 17.0113 15.9285 17.0122 15.8928L13.907 14.8699C13.8518 15.2385 13.8231 15.6159 13.8231 15.9999C13.8231 18.0508 14.64 19.9116 15.961 21.2664L17.8782 18.5912C17.3341 17.8724 17.0096 16.9741 17.0096 15.9999Z" fill="#743794"/>
</svg>
