<?xml version="1.0" encoding="utf-8"?>
<svg width="23" height="39" viewBox="0 0 23 39" fill="none" xmlns="http://www.w3.org/2000/svg">
<path d="M11.5468 0.326319C11.4939 -0.108773 10.7923 -0.108773 10.7393 0.326319C8.98194 14.7648 0 17.7394 0 27.7741C0 33.9735 5.10024 39 11.1429 39C17.1855 39 22.2857 33.9735 22.2857 27.7741C22.2857 17.7394 13.3038 14.7648 11.5468 0.326319ZM9.84989 16.2866C9.73169 16.7315 9.60514 17.1897 9.47501 17.6622C8.6763 20.5559 7.77135 23.8351 7.77135 27.6303C7.77135 29.6839 6.58224 30.4147 5.46955 30.4147C4.20046 30.4147 3.16855 29.352 3.16855 28.0459C3.16855 23.5634 5.2837 20.6347 7.15013 18.0506C7.73473 17.2417 8.28631 16.4772 8.7352 15.715C8.94055 15.3673 9.49252 15.3819 9.74324 15.7268C9.86183 15.8909 9.90083 16.0953 9.84989 16.2866Z" fill="#743794"/>
</svg>
